<svg xmlns="http://www.w3.org/2000/svg" width="24.492" height="24.492" viewBox="0 0 24.492 24.492">
  <g id="Instagram" transform="translate(0)">
    <path id="Path_3" data-name="Path 3" d="M12.246,2.177a37.549,37.549,0,0,1,4.9.136,6.311,6.311,0,0,1,2.313.408,4.779,4.779,0,0,1,2.313,2.313,6.311,6.311,0,0,1,.408,2.313c0,1.225.136,1.633.136,4.9a37.549,37.549,0,0,1-.136,4.9,6.311,6.311,0,0,1-.408,2.313,4.779,4.779,0,0,1-2.313,2.313,6.311,6.311,0,0,1-2.313.408c-1.225,0-1.633.136-4.9.136a37.549,37.549,0,0,1-4.9-.136,6.311,6.311,0,0,1-2.313-.408,4.779,4.779,0,0,1-2.313-2.313,6.311,6.311,0,0,1-.408-2.313c0-1.225-.136-1.633-.136-4.9a37.549,37.549,0,0,1,.136-4.9,6.311,6.311,0,0,1,.408-2.313,4.887,4.887,0,0,1,.952-1.361,2.3,2.3,0,0,1,1.361-.952,6.311,6.311,0,0,1,2.313-.408,37.549,37.549,0,0,1,4.9-.136m0-2.177A40.2,40.2,0,0,0,7.212.136,8.4,8.4,0,0,0,4.218.68,5.327,5.327,0,0,0,2.041,2.041,5.327,5.327,0,0,0,.68,4.218,6.2,6.2,0,0,0,.136,7.212,40.2,40.2,0,0,0,0,12.246a40.2,40.2,0,0,0,.136,5.034A8.4,8.4,0,0,0,.68,20.274a5.327,5.327,0,0,0,1.361,2.177,5.327,5.327,0,0,0,2.177,1.361,8.4,8.4,0,0,0,2.993.544,40.2,40.2,0,0,0,5.034.136,40.2,40.2,0,0,0,5.034-.136,8.4,8.4,0,0,0,2.993-.544,5.709,5.709,0,0,0,3.538-3.538,8.4,8.4,0,0,0,.544-2.993c0-1.361.136-1.769.136-5.034a40.2,40.2,0,0,0-.136-5.034,8.4,8.4,0,0,0-.544-2.993,5.327,5.327,0,0,0-1.361-2.177A5.327,5.327,0,0,0,20.274.68,8.4,8.4,0,0,0,17.281.136,40.2,40.2,0,0,0,12.246,0m0,5.987a6.158,6.158,0,0,0-6.259,6.259,6.259,6.259,0,1,0,6.259-6.259m0,10.341a4.009,4.009,0,0,1-4.082-4.082,4.009,4.009,0,0,1,4.082-4.082,4.009,4.009,0,0,1,4.082,4.082,4.009,4.009,0,0,1-4.082,4.082m6.531-12.11a1.5,1.5,0,1,0,1.5,1.5,1.51,1.51,0,0,0-1.5-1.5" transform="translate(0)" fill="#004f70" fill-rule="evenodd"/>
  </g>
</svg>
