<svg id="Search" xmlns="http://www.w3.org/2000/svg" width="32.198" height="32.197" viewBox="0 0 32.198 32.197">
  <rect id="Rectangle_176" data-name="Rectangle 176" width="32" height="32" fill="none"/>
  <path id="Path_99" data-name="Path 99" d="M32.2,29.362,25.515,22.68a13.865,13.865,0,0,0,2.835-8.5A14.088,14.088,0,0,0,14.175,0,14.088,14.088,0,0,0,0,14.175,14.088,14.088,0,0,0,14.175,28.35a13.865,13.865,0,0,0,8.5-2.835L29.362,32.2ZM4.05,14.175A10.027,10.027,0,0,1,14.175,4.05,10.027,10.027,0,0,1,24.3,14.175,10.027,10.027,0,0,1,14.175,24.3,10.027,10.027,0,0,1,4.05,14.175Z" fill="#fff"/>
</svg>
