<svg id="Twitter" xmlns="http://www.w3.org/2000/svg" width="25" height="25" viewBox="0 0 25 25">
  <rect id="Rectangle_1457" data-name="Rectangle 1457" width="25" height="25" fill="none"/>
  <path id="Path_2" data-name="Path 2" d="M45.756,21.866A14.16,14.16,0,0,0,60.043,7.579V6.9a11.06,11.06,0,0,0,2.449-2.585,11.3,11.3,0,0,1-2.857.816,5.294,5.294,0,0,0,2.177-2.721,12.481,12.481,0,0,1-3.13,1.225A4.859,4.859,0,0,0,55.008,2a5.112,5.112,0,0,0-5.034,5.034,2.653,2.653,0,0,0,.136,1.089A14.068,14.068,0,0,1,39.769,2.816a5.211,5.211,0,0,0-.68,2.585A5.406,5.406,0,0,0,41.266,9.62a4.587,4.587,0,0,1-2.313-.68h0a4.973,4.973,0,0,0,4.082,4.9,4.2,4.2,0,0,1-1.361.136,2.316,2.316,0,0,1-.952-.136,5.155,5.155,0,0,0,4.762,3.538,10.273,10.273,0,0,1-6.259,2.177A3.767,3.767,0,0,1,38,19.417a12.843,12.843,0,0,0,7.756,2.449" transform="translate(-38 1.062)" fill="#004f70" fill-rule="evenodd"/>
</svg>
